<svg width="1000" height="1000" viewBox="0 0 1000 1000" fill="none" xmlns="http://www.w3.org/2000/svg">
<path d="M0 500C0 776.142 223.858 1000 500 1000C776.142 1000 1000 776.142 1000 500C1000 223.858 776.142 0 500 0C223.858 0 0 223.858 0 500Z" fill="#122620"/>
<path d="M322 259.5V449.424L466.5 753H547.5L694.418 450.863V753H813.5V248H669.755L509.442 597.615L346 259.5H322Z" fill="white"/>
<path d="M365.866 285.407L382.548 304.83L355.857 248H330V264.546L365.866 285.407Z" fill="#122620"/>
<path d="M366.696 542.312L332.717 558.459H187V477.725H218.365H280.442L307.886 458.642L318.341 423.413V396.257L307.886 371.303L292.857 358.826L269.333 350.752H187V248H295.471L326.183 255.339L359.508 269.284L396.754 298.642L421.585 339.009L431.386 381.578L434 419.743L428.772 455.707L415.05 488L392.833 521.028L366.696 542.312Z" fill="#FED700"/>
<path d="M308.141 558H214L308.141 753H420L308.141 558Z" fill="#FED700"/>
</svg>
